# xmcd
#
# Track frame offsets:
#	150
#	14759
#	28850
#	44809
#	58001
#	76136
#	103024
#	113278
#	127881
#	140417
#	155853
#
# Disc length: 2236 seconds
#
# Revision: 0
# Processed by: cddbd v1.5.2PL0 Copyright (c) Steve Scherf et al.
# Submitted via: EasyCDDAExtractor 9.1.0.1
#
DISCID=9308ba0b
DTITLE=Erich Lindenthaler - Morzgerstraﬂe 36
DYEAR=2018
DGENRE=
TTITLE0=Come uno tsunami
TTITLE1=Big Fat Mama With the Golden Pigiama
TTITLE2=Die Ballade vom einsamen Hansi
TTITLE3=Druckt und tretn
TTITLE4=Wos gestan woa
TTITLE5=Sog ma die Woaheit
TTITLE6=Oiwei Sonntag
TTITLE7=Uptight
TTITLE8=Little Darling Blues
TTITLE9=Blue Eyed Woman
TTITLE10=Nothing but the Blues Is Gonna Turn Me On
EXTD=
EXTT0=
EXTT1=
EXTT2=
EXTT3=
EXTT4=
EXTT5=
EXTT6=
EXTT7=
EXTT8=
EXTT9=
EXTT10=
PLAYORDER=
